{"title":"Joey Season 2 DVDRip XviD DiGrX","uid":8467262,"size":4239685741,"categoryP":"video","categoryS":"tv_shows","magnet":"?xt=urn:btih:8905ed5d8e1001a515ecf9c1e6d402a174536683&amp;dn=Joey+Season+2+DVDRip+XviD+DiGrX&amp;tr=udp%3A%2F%2Ftracker.openbittorrent.com%3A80&amp;tr=udp%3A%2F%2Fopen.demonii.com%3A1337&amp;tr=udp%3A%2F%2Ftracker.coppersurfer.tk%3A6969&amp;tr=udp%3A%2F%2Fexodus.desync.com%3A6969","seeders":1,"leechers":0,"uploader":"dimigeor","files":23,"time":1368387702,"description":"Joey Season 2 DVDRip XviD DiGrX\n\n\nCodec ID, Format: XVID, MPEG-4\nAspect ratio, Dimension: 16:9, 624x352\nAudio: MP3, 2 Channels\n\nAll Episodes in XviD DVDRip Aspect ratio 16:9 stretched from 4:3\n\n\n-----------------------------------------------------------------------------------\n\n\nSeason 2 Episode 1 example:\n\nComplete name                            : Joey 2x01 - Joey and the Big Break (1) DVDRip.avi\nFormat                                   : AVI\nFormat/Info                              : Audio Video Interleave\nFile size                                : 174 MiB\nDuration                                 : 20mn 17s\nOverall bit rate mode                    : Variable\nOverall bit rate                         : 1 199 Kbps\nWriting application                      : MEncoder r33883\nWriting library                          : MPlayer\n\nVideo\nID                                       : 0\nFormat                                   : MPEG-4 Visual\nFormat profile                           : Simple@L3\nFormat settings, BVOP                    : No\nFormat settings, QPel                    : No\nFormat settings, GMC                     : No warppoints\nFormat settings, Matrix                  : Default (H.263)\nCodec ID                                 : XVID\nCodec ID/Hint                            : XviD\nDuration                                 : 20mn 17s\nBit rate                                 : 996 Kbps\nWidth                                    : 624 pixels\nHeight                                   : 352 pixels\nDisplay aspect ratio                     : 16:9\nFrame rate                               : 25.000 fps\nColor space                              : YUV\nChroma subsampling                       : 4:2:0\nBit depth                                : 8 bits\nScan type                                : Progressive\nCompression mode                         : Lossy\nBits/(Pixel*Frame)                       : 0.181\nStream size                              : 145 MiB (83%)\nWriting library                          : XviD 63\n\nAudio\nID                                       : 1\nFormat                                   : MPEG Audio\nFormat version                           : Version 1\nFormat profile                           : Layer 3\nMode                                     : Joint stereo\nMode extension                           : MS Stereo\nCodec ID                                 : 55\nCodec ID/Hint                            : MP3\nDuration                                 : 20mn 17s\nBit rate mode                            : Variable\nBit rate                                 : 192 Kbps\nChannel(s)                               : 2 channels\nSampling rate                            : 48.0 KHz\nCompression mode                         : Lossy\nStream size                              : 27.5 MiB (16%)\nAlignment                                : Aligned on interleaves\nInterleave, duration                     : 24 ms (0.60 video frame)\nInterleave, preload duration             : 85 ms\nWriting library                          : LAME3.98.4\n\n\n-----------------------------------------------------------------------------------\n\n\nPlease keep seeding!","torrent":{"xt":"urn:btih:8905ed5d8e1001a515ecf9c1e6d402a174536683","amp;dn":"Joey+Season+2+DVDRip+XviD+DiGrX","amp;tr":["udp%3A%2F%2Ftracker.openbittorrent.com%3A80","udp%3A%2F%2Fopen.demonii.com%3A1337","udp%3A%2F%2Ftracker.coppersurfer.tk%3A6969","udp%3A%2F%2Fexodus.desync.com%3A6969"],"infoHash":"8905ed5d8e1001a515ecf9c1e6d402a174536683","infoHashBuffer":{"type":"Buffer","data":[137,5,237,93,142,16,1,165,21,236,249,193,230,212,2,161,116,83,102,131]},"announce":[],"urlList":[]}}